<svg xmlns="http://www.w3.org/2000/svg" xmlns:xlink="http://www.w3.org/1999/xlink" width="500" zoomAndPan="magnify" viewBox="0 0 375 374.999991" height="500" preserveAspectRatio="xMidYMid meet" version="1.0"><defs><g/></defs><g fill="#00214d" fill-opacity="1"><g transform="translate(76.821818, 203.745024)"><g><path d="M 24.109375 -7.8125 C 23.617188 -5.289062 22.460938 -3.257812 20.640625 -1.71875 C 18.828125 -0.175781 16.40625 0.59375 13.375 0.59375 C 11.800781 0.59375 10.335938 0.351562 8.984375 -0.125 C 7.628906 -0.613281 6.453125 -1.316406 5.453125 -2.234375 C 4.453125 -3.148438 3.664062 -4.28125 3.09375 -5.625 C 2.519531 -6.96875 2.234375 -8.492188 2.234375 -10.203125 L 2.234375 -10.71875 C 2.234375 -12.4375 2.519531 -13.976562 3.09375 -15.34375 C 3.664062 -16.71875 4.457031 -17.890625 5.46875 -18.859375 C 6.476562 -19.835938 7.660156 -20.582031 9.015625 -21.09375 C 10.378906 -21.613281 11.832031 -21.875 13.375 -21.875 C 16.351562 -21.875 18.765625 -21.097656 20.609375 -19.546875 C 22.453125 -18.003906 23.617188 -15.976562 24.109375 -13.46875 L 18.78125 -12.09375 C 18.613281 -13.351562 18.070312 -14.441406 17.15625 -15.359375 C 16.238281 -16.273438 14.953125 -16.734375 13.296875 -16.734375 C 12.523438 -16.734375 11.796875 -16.585938 11.109375 -16.296875 C 10.421875 -16.015625 9.816406 -15.609375 9.296875 -15.078125 C 8.785156 -14.546875 8.378906 -13.898438 8.078125 -13.140625 C 7.785156 -12.390625 7.640625 -11.539062 7.640625 -10.59375 L 7.640625 -10.34375 C 7.640625 -9.394531 7.785156 -8.554688 8.078125 -7.828125 C 8.378906 -7.097656 8.785156 -6.488281 9.296875 -6 C 9.816406 -5.519531 10.421875 -5.15625 11.109375 -4.90625 C 11.796875 -4.664062 12.523438 -4.546875 13.296875 -4.546875 C 14.953125 -4.546875 16.21875 -4.957031 17.09375 -5.78125 C 17.96875 -6.613281 18.53125 -7.734375 18.78125 -9.140625 Z M 24.109375 -7.8125 "/></g></g></g><g fill="#00214d" fill-opacity="1"><g transform="translate(103.068408, 203.745024)"><g><path d="M 17.109375 -3.09375 C 16.535156 -1.75 15.734375 -0.796875 14.703125 -0.234375 C 13.679688 0.316406 12.484375 0.59375 11.109375 0.59375 C 9.816406 0.59375 8.609375 0.351562 7.484375 -0.125 C 6.359375 -0.613281 5.363281 -1.328125 4.5 -2.265625 C 3.644531 -3.210938 2.96875 -4.359375 2.46875 -5.703125 C 1.96875 -7.046875 1.71875 -8.578125 1.71875 -10.296875 L 1.71875 -10.984375 C 1.71875 -12.671875 1.957031 -14.1875 2.4375 -15.53125 C 2.925781 -16.875 3.582031 -18.015625 4.40625 -18.953125 C 5.238281 -19.898438 6.207031 -20.625 7.3125 -21.125 C 8.414062 -21.625 9.59375 -21.875 10.84375 -21.875 C 12.363281 -21.875 13.585938 -21.613281 14.515625 -21.09375 C 15.441406 -20.582031 16.179688 -19.785156 16.734375 -18.703125 L 17.5 -18.703125 L 17.5 -21.28125 L 22.90625 -21.28125 L 22.90625 -6.4375 C 22.90625 -5.570312 23.289062 -5.140625 24.0625 -5.140625 L 24.875 -5.140625 L 24.875 0 L 21.1875 0 C 20.21875 0 19.425781 -0.285156 18.8125 -0.859375 C 18.195312 -1.429688 17.890625 -2.175781 17.890625 -3.09375 Z M 12.3125 -4.546875 C 13.882812 -4.546875 15.140625 -5.066406 16.078125 -6.109375 C 17.023438 -7.148438 17.5 -8.570312 17.5 -10.375 L 17.5 -10.890625 C 17.5 -12.691406 17.023438 -14.113281 16.078125 -15.15625 C 15.140625 -16.207031 13.882812 -16.734375 12.3125 -16.734375 C 10.738281 -16.734375 9.476562 -16.207031 8.53125 -15.15625 C 7.59375 -14.113281 7.125 -12.691406 7.125 -10.890625 L 7.125 -10.375 C 7.125 -8.570312 7.59375 -7.148438 8.53125 -6.109375 C 9.476562 -5.066406 10.738281 -4.546875 12.3125 -4.546875 Z M 12.3125 -4.546875 "/></g></g></g><g fill="#00214d" fill-opacity="1"><g transform="translate(129.314997, 203.745024)"><g><path d="M 24.703125 0 L 19.296875 0 L 19.296875 -14.921875 C 19.296875 -15.523438 19.144531 -15.976562 18.84375 -16.28125 C 18.550781 -16.582031 18.160156 -16.734375 17.671875 -16.734375 C 17.097656 -16.734375 16.644531 -16.5625 16.3125 -16.21875 C 15.988281 -15.875 15.828125 -15.359375 15.828125 -14.671875 L 15.828125 0 L 10.421875 0 L 10.421875 -14.921875 C 10.421875 -15.523438 10.253906 -15.976562 9.921875 -16.28125 C 9.597656 -16.582031 9.207031 -16.734375 8.75 -16.734375 C 8.238281 -16.734375 7.8125 -16.5625 7.46875 -16.21875 C 7.125 -15.875 6.953125 -15.359375 6.953125 -14.671875 L 6.953125 0 L 1.546875 0 L 1.546875 -21.28125 L 6.953125 -21.28125 L 6.953125 -19.21875 L 7.71875 -19.21875 C 7.894531 -19.988281 8.289062 -20.625 8.90625 -21.125 C 9.519531 -21.625 10.328125 -21.875 11.328125 -21.875 C 12.265625 -21.875 13.0625 -21.625 13.71875 -21.125 C 14.382812 -20.625 14.828125 -19.988281 15.046875 -19.21875 L 15.828125 -19.21875 C 16.054688 -19.988281 16.535156 -20.625 17.265625 -21.125 C 17.992188 -21.625 18.898438 -21.875 19.984375 -21.875 C 21.410156 -21.875 22.550781 -21.394531 23.40625 -20.4375 C 24.269531 -19.476562 24.703125 -18.15625 24.703125 -16.46875 Z M 24.703125 0 "/></g></g></g><g fill="#00214d" fill-opacity="1"><g transform="translate(155.561591, 203.745024)"><g><path d="M 7.84375 0 L 2.4375 0 L 2.4375 -30.015625 L 7.84375 -30.015625 L 7.84375 -18.1875 L 8.625 -18.1875 C 9.195312 -19.351562 10.023438 -20.257812 11.109375 -20.90625 C 12.191406 -21.550781 13.578125 -21.875 15.265625 -21.875 C 16.523438 -21.875 17.71875 -21.628906 18.84375 -21.140625 C 19.976562 -20.660156 20.96875 -19.953125 21.8125 -19.015625 C 22.65625 -18.085938 23.328125 -16.953125 23.828125 -15.609375 C 24.328125 -14.265625 24.578125 -12.734375 24.578125 -11.015625 L 24.578125 -10.25 C 24.578125 -8.507812 24.332031 -6.96875 23.84375 -5.625 C 23.363281 -4.28125 22.707031 -3.140625 21.875 -2.203125 C 21.039062 -1.273438 20.054688 -0.578125 18.921875 -0.109375 C 17.796875 0.359375 16.578125 0.59375 15.265625 0.59375 C 14.296875 0.59375 13.453125 0.492188 12.734375 0.296875 C 12.023438 0.0976562 11.40625 -0.171875 10.875 -0.515625 C 10.34375 -0.859375 9.894531 -1.25 9.53125 -1.6875 C 9.175781 -2.132812 8.875 -2.601562 8.625 -3.09375 L 7.84375 -3.09375 Z M 13.515625 -4.546875 C 15.203125 -4.546875 16.566406 -5.066406 17.609375 -6.109375 C 18.648438 -7.148438 19.171875 -8.570312 19.171875 -10.375 L 19.171875 -10.890625 C 19.171875 -12.691406 18.648438 -14.113281 17.609375 -15.15625 C 16.566406 -16.207031 15.203125 -16.734375 13.515625 -16.734375 C 11.828125 -16.734375 10.457031 -16.195312 9.40625 -15.125 C 8.363281 -14.050781 7.84375 -12.640625 7.84375 -10.890625 L 7.84375 -10.375 C 7.84375 -8.632812 8.363281 -7.226562 9.40625 -6.15625 C 10.457031 -5.082031 11.828125 -4.546875 13.515625 -4.546875 Z M 13.515625 -4.546875 "/></g></g></g><g fill="#00214d" fill-opacity="1"><g transform="translate(181.808177, 203.745024)"><g><path d="M 3.734375 -5.140625 L 10.9375 -5.140625 L 10.9375 -16.125 L 4.25 -16.125 L 4.25 -21.28125 L 16.34375 -21.28125 L 16.34375 -5.140625 L 22.515625 -5.140625 L 22.515625 0 L 3.734375 0 Z M 17.671875 -27.578125 C 17.671875 -27.003906 17.5625 -26.46875 17.34375 -25.96875 C 17.132812 -25.46875 16.84375 -25.035156 16.46875 -24.671875 C 16.09375 -24.316406 15.65625 -24.03125 15.15625 -23.8125 C 14.65625 -23.601562 14.132812 -23.5 13.59375 -23.5 C 13.019531 -23.5 12.488281 -23.601562 12 -23.8125 C 11.519531 -24.03125 11.09375 -24.316406 10.71875 -24.671875 C 10.351562 -25.035156 10.0625 -25.46875 9.84375 -25.96875 C 9.625 -26.46875 9.515625 -27.003906 9.515625 -27.578125 C 9.515625 -28.148438 9.625 -28.6875 9.84375 -29.1875 C 10.0625 -29.6875 10.351562 -30.113281 10.71875 -30.46875 C 11.09375 -30.832031 11.519531 -31.117188 12 -31.328125 C 12.488281 -31.546875 13.019531 -31.65625 13.59375 -31.65625 C 14.132812 -31.65625 14.65625 -31.546875 15.15625 -31.328125 C 15.65625 -31.117188 16.09375 -30.832031 16.46875 -30.46875 C 16.84375 -30.113281 17.132812 -29.6875 17.34375 -29.1875 C 17.5625 -28.6875 17.671875 -28.148438 17.671875 -27.578125 Z M 17.671875 -27.578125 "/></g></g></g><g fill="#00214d" fill-opacity="1"><g transform="translate(208.054762, 203.745024)"><g><path d="M 24.1875 -10.375 C 24.1875 -8.601562 23.882812 -7.035156 23.28125 -5.671875 C 22.6875 -4.316406 21.875 -3.175781 20.84375 -2.25 C 19.8125 -1.320312 18.628906 -0.613281 17.296875 -0.125 C 15.972656 0.351562 14.582031 0.59375 13.125 0.59375 C 11.664062 0.59375 10.269531 0.351562 8.9375 -0.125 C 7.613281 -0.613281 6.4375 -1.320312 5.40625 -2.25 C 4.375 -3.175781 3.554688 -4.316406 2.953125 -5.671875 C 2.359375 -7.035156 2.0625 -8.601562 2.0625 -10.375 L 2.0625 -10.890625 C 2.0625 -12.640625 2.359375 -14.191406 2.953125 -15.546875 C 3.554688 -16.898438 4.375 -18.050781 5.40625 -19 C 6.4375 -19.945312 7.613281 -20.660156 8.9375 -21.140625 C 10.269531 -21.628906 11.664062 -21.875 13.125 -21.875 C 14.582031 -21.875 15.972656 -21.628906 17.296875 -21.140625 C 18.628906 -20.660156 19.8125 -19.945312 20.84375 -19 C 21.875 -18.050781 22.6875 -16.898438 23.28125 -15.546875 C 23.882812 -14.191406 24.1875 -12.640625 24.1875 -10.890625 Z M 13.125 -4.546875 C 13.894531 -4.546875 14.625 -4.671875 15.3125 -4.921875 C 16 -5.179688 16.597656 -5.554688 17.109375 -6.046875 C 17.628906 -6.535156 18.035156 -7.128906 18.328125 -7.828125 C 18.628906 -8.523438 18.78125 -9.316406 18.78125 -10.203125 L 18.78125 -11.0625 C 18.78125 -11.945312 18.628906 -12.738281 18.328125 -13.4375 C 18.035156 -14.144531 17.628906 -14.738281 17.109375 -15.21875 C 16.597656 -15.707031 16 -16.082031 15.3125 -16.34375 C 14.625 -16.601562 13.894531 -16.734375 13.125 -16.734375 C 12.351562 -16.734375 11.625 -16.601562 10.9375 -16.34375 C 10.25 -16.082031 9.644531 -15.707031 9.125 -15.21875 C 8.613281 -14.738281 8.207031 -14.144531 7.90625 -13.4375 C 7.613281 -12.738281 7.46875 -11.945312 7.46875 -11.0625 L 7.46875 -10.203125 C 7.46875 -9.316406 7.613281 -8.523438 7.90625 -7.828125 C 8.207031 -7.128906 8.613281 -6.535156 9.125 -6.046875 C 9.644531 -5.554688 10.25 -5.179688 10.9375 -4.921875 C 11.625 -4.671875 12.351562 -4.546875 13.125 -4.546875 Z M 13.125 -4.546875 "/></g></g></g><g fill="#ff5470" fill-opacity="1"><g transform="translate(234.300577, 203.745024)"><g><path d="M 0.9375 -30.015625 L 10.890625 -30.015625 L 12.609375 -7.46875 L 12.609375 -3.09375 L 13.640625 -3.09375 L 13.640625 -7.46875 L 15.359375 -30.015625 L 25.3125 -30.015625 L 25.3125 0 L 20.15625 0 L 20.15625 -20.078125 L 20.671875 -26.9375 L 19.640625 -26.9375 L 17.40625 0 L 8.921875 0 L 6.609375 -26.9375 L 5.578125 -26.9375 L 6.09375 -20.078125 L 6.09375 0 L 0.9375 0 Z M 0.9375 -30.015625 "/></g></g></g><g fill="#ff5470" fill-opacity="1"><g transform="translate(260.547167, 203.745024)"><g><path d="M 3.515625 -30.015625 L 9.171875 -30.015625 L 9.171875 -5.40625 L 22.8125 -5.40625 L 22.8125 0 L 3.515625 0 Z M 3.515625 -30.015625 "/></g></g></g><g fill="#00214d" fill-opacity="1"><g transform="translate(286.790701, 203.745024)"><g><path d="M 1.203125 -23.84375 C 1.203125 -25.476562 1.515625 -27.023438 2.140625 -28.484375 C 2.773438 -29.941406 3.628906 -31.207031 4.703125 -32.28125 C 5.773438 -33.351562 7.039062 -34.203125 8.5 -34.828125 C 9.957031 -35.453125 11.5 -35.765625 13.125 -35.765625 C 14.75 -35.765625 16.289062 -35.453125 17.75 -34.828125 C 19.207031 -34.203125 20.472656 -33.351562 21.546875 -32.28125 C 22.617188 -31.207031 23.46875 -29.941406 24.09375 -28.484375 C 24.726562 -27.023438 25.046875 -25.476562 25.046875 -23.84375 C 25.046875 -22.21875 24.726562 -20.675781 24.09375 -19.21875 C 23.46875 -17.757812 22.617188 -16.492188 21.546875 -15.421875 C 20.472656 -14.347656 19.207031 -13.492188 17.75 -12.859375 C 16.289062 -12.234375 14.75 -11.921875 13.125 -11.921875 C 11.5 -11.921875 9.957031 -12.234375 8.5 -12.859375 C 7.039062 -13.492188 5.773438 -14.347656 4.703125 -15.421875 C 3.628906 -16.492188 2.773438 -17.757812 2.140625 -19.21875 C 1.515625 -20.675781 1.203125 -22.21875 1.203125 -23.84375 Z M 4.546875 -23.84375 C 4.546875 -22.644531 4.765625 -21.523438 5.203125 -20.484375 C 5.648438 -19.441406 6.257812 -18.53125 7.03125 -17.75 C 7.800781 -16.976562 8.707031 -16.367188 9.75 -15.921875 C 10.800781 -15.484375 11.925781 -15.265625 13.125 -15.265625 C 14.320312 -15.265625 15.441406 -15.484375 16.484375 -15.921875 C 17.535156 -16.367188 18.445312 -16.976562 19.21875 -17.75 C 19.988281 -18.53125 20.59375 -19.441406 21.03125 -20.484375 C 21.476562 -21.523438 21.703125 -22.644531 21.703125 -23.84375 C 21.703125 -25.050781 21.476562 -26.175781 21.03125 -27.21875 C 20.59375 -28.257812 19.988281 -29.164062 19.21875 -29.9375 C 18.445312 -30.707031 17.535156 -31.3125 16.484375 -31.75 C 15.441406 -32.195312 14.320312 -32.421875 13.125 -32.421875 C 11.925781 -32.421875 10.800781 -32.195312 9.75 -31.75 C 8.707031 -31.3125 7.800781 -30.707031 7.03125 -29.9375 C 6.257812 -29.164062 5.648438 -28.257812 5.203125 -27.21875 C 4.765625 -26.175781 4.546875 -25.050781 4.546875 -23.84375 Z M 17.5 -17.671875 L 14.15625 -17.671875 L 14.15625 -20.71875 C 14.15625 -21.03125 14.0625 -21.285156 13.875 -21.484375 C 13.6875 -21.679688 13.421875 -21.78125 13.078125 -21.78125 L 12.609375 -21.78125 L 12.609375 -17.671875 L 9.265625 -17.671875 L 9.265625 -30.015625 L 13.8125 -30.015625 C 15.09375 -30.015625 16.066406 -29.671875 16.734375 -28.984375 C 17.410156 -28.304688 17.75 -27.507812 17.75 -26.59375 C 17.75 -25.070312 17.179688 -24.082031 16.046875 -23.625 L 16.046875 -23.25 C 16.554688 -23.1875 16.925781 -22.984375 17.15625 -22.640625 C 17.382812 -22.296875 17.5 -21.925781 17.5 -21.53125 Z M 12.609375 -24.875 L 13.296875 -24.875 C 14.035156 -24.875 14.40625 -25.21875 14.40625 -25.90625 C 14.40625 -26.59375 14.035156 -26.9375 13.296875 -26.9375 L 12.609375 -26.9375 Z M 12.609375 -24.875 "/></g></g></g></svg>